#!OML:ASF E:\emotionWalksFemale\Project 1\Capture day 1\Session 1\Female1.ASF
:FULLY-SPECIFIED
:DEGREES
436
root 8.52785 15.5723 19.7199 -168.435 -13.8006 -185.085
lowerback 29.9494 3.78339 5.70088
upperback 0.6761 6.39813 -0.540658
thorax -14.3088 2.27914 -6.12917
lowerneck -0.998595 2.07797 1.80888
upperneck -16.0399 1.26228 -5.86787
head -4.56888 0.459806 -2.12964
rclavicle 2.38542e-015 5.40694e-014
rhumerus 82.0617 -16.4246 -50.2186
rradius 35.6102
rwrist 13.8706
rhand 3.80099 -50.7535
rfingers 7.12502
rthumb 29.2257 -78.4782
lclavicle 2.38542e-015 5.40694e-014
lhumerus 98.4761 1.35758 68.6259
lradius 30.7023
lwrist 20.0447
lhand -4.05688 -48.7193
lfingers 7.12502
lthumb 21.6993 -19.9155
rfemur -20.395 -10.7231 24.2588
rtibia 49.7346
rfoot -5.52684 -21.0516
rtoes 3.87669
lfemur -25.4112 -5.39194 -24.264
ltibia 48.4973
lfoot -2.25192 -3.61853
ltoes -5.0116
437
root 8.50462 15.7942 19.4926 -168.718 -14.5131 -185.185
lowerback 28.8601 3.82183 6.00854
upperback 0.159719 6.60332 -0.563599
thorax -14.345 2.37769 -6.36642
lowerneck -1.17515 2.45648 1.79826
upperneck -14.1811 1.99057 -5.85776
head -4.39636 0.837198 -2.35289
rclavicle 8.26944e-014 2.06736e-014
rhumerus 84.1101 -16.3387 -51.4867
rradius 36.3952
rwrist 14.9175
rhand 2.97016 -48.4982
rfingers 7.12502
rthumb 28.432 -76.3582
lclavicle 8.26944e-014 2.06736e-014
lhumerus 101.15 1.82726 70.2317
lradius 30.6856
lwrist 21.7048
lhand -2.46487 -48.6101
lfingers 7.12502
lthumb 23.2275 -19.9908
rfemur -17.4605 -11.4749 23.9951
rtibia 45.7124
rfoot -2.21078 -20.7142
rtoes 1.53895
lfemur -22.5173 -5.57465 -24.202
ltibia 44.6322
lfoot 1.29804 -3.77497
ltoes -2.31592
438
root 8.49017 16.0248 19.2491 -169.35 -15.2751 -185.015
lowerback 28.179 3.85777 6.52468
upperback -0.42678 6.88398 -0.589858
thorax -14.6072 2.46778 -6.77614
lowerneck -1.29374 2.77435 1.7123
upperneck -12.5754 2.62881 -5.77814
head -3.76665 1.19989 -2.2846
rclavicle 6.99722e-014 9.54166e-015
rhumerus 85.4751 -16.4322 -52.0573
rradius 37.5186
rwrist 15.0115
rhand 2.19784 -46.9228
rfingers 7.12502
rthumb 27.6938 -74.9038
lclavicle 6.99722e-014 9.54166e-015
lhumerus 103.552 1.86232 71.7849
lradius 30.6337
lwrist 23.0783
lhand -1.47105 -48.4631
lfingers 7.12502
lthumb 24.1806 -19.9674
rfemur -13.9458 -11.6186 23.9459
rtibia 41.2725
rfoot 1.44521 -21.0067
rtoes 2.43245
lfemur -19.1999 -5.83925 -23.7907
ltibia 40.4933
lfoot 5.08813 -3.40935
ltoes 2.19636
439
root 8.47735 16.2601 18.9972 -170.082 -16.0483 -184.773
lowerback 27.1793 4.14676 6.95569
upperback -0.804001 7.41512 -0.573266
thorax -14.4373 2.7058 -7.12868
lowerneck -1.27248 2.9949 2.22154
upperneck -11.02 3.09466 -6.06666
head -3.19685 1.4599 -2.44503
rclavicle 6.08281e-014 -4.45278e-014
rhumerus 86.1995 -17.5638 -51.1427
rradius 38.7141
rwrist 13.9406
rhand 1.12471 -45.2364
rfingers 7.12502
rthumb 26.6672 -73.3779
lclavicle 6.08281e-014 -4.45278e-014
lhumerus 106.254 1.75863 72.923
lradius 30.2798
lwrist 24.1319
lhand -1.74585 -48.0554
lfingers 7.12502
lthumb 23.9171 -19.5249
rfemur -10.1411 -11.0952 23.9547
rtibia 36.4738
rfoot 5.64002 -21.9326
rtoes 5.36781
lfemur -15.7499 -6.48584 -23.2917
ltibia 36.1287
lfoot 9.56203 -2.50918
ltoes 4.88259
440
root 8.46223 16.5023 18.7394 -170.563 -16.8372 -184.586
lowerback 26.0379 4.34711 7.19098
upperback -1.02794 7.77234 -0.423879
thorax -14.7467 2.82467 -7.47074
lowerneck -1.25774 3.40645 2.56136
upperneck -9.18984 3.82704 -6.31658
head -2.5343 1.85473 -2.55323
rclavicle -2.10712e-014 -6.36111e-015
rhumerus 86.9903 -18.1386 -50.3091
rradius 39.661
rwrist 12.9812
rhand -0.0084196 -43.9222
rfingers 7.12502
rthumb 25.5823 -72.2241
lclavicle -2.10712e-014 -6.36111e-015
lhumerus 108.287 2.07184 73.6488
lradius 29.9799
lwrist 24.5889
lhand -1.1916 -47.3497
lfingers 7.12502
lthumb 24.4485 -18.8899
rfemur -6.47645 -9.55642 23.9968
rtibia 31.413
rfoot 9.15499 -24.2729
rtoes 11.7847
lfemur -12.613 -7.70012 -22.8761
ltibia 31.7718
lfoot 13.4494 -0.935265
ltoes -1.39232
